<?xml version="1.0" encoding="utf-8"?>
<svg version="1.1" xmlns="http://www.w3.org/2000/svg" xmlns:xlink="http://www.w3.org/1999/xlink" viewBox="16 36 170 118">
<style type="text/css">
	.st1{fill:#339999;}
</style>
<g>
	<path class="st1" d="M161.6,82.1c0,0,0.2-18.1,8.3-13.5C176.5,72.3,162.3,81.2,161.6,82.1"/>
	<path class="st1" d="M168,122.1c-2.4-2.1-3.9,0.6-3.9,0.6s-5,7.4-14,12.5c-6.8,3.8-9.7-3.4-10.1-7.8c6.8-5.7,32.5-29.5,18.9-38.8
		c-20.4-9.6-26,37.1-26,37.1c-25,21.6-23-5.1-23-5.1s12.1-12.1,23.1-40.6c2.7-7,10.5-31.2-0.6-34.7c-11.1-3.5-32.2,31.3-30.3,70.7
		c0.1,7.8,2.8,36.5,31.7,16c1.5,5.2,4.9,10.7,11.5,10.7c9.6,0,22.4-16.9,22.4-16.9S169.7,123.6,168,122.1 M155.8,96.7
		c3,1-7.9,18.4-12.8,21.2C143,118,150.4,94.9,155.8,96.7 M129.9,57.3c6.6,1.8-12.3,45.9-19.6,53.5
		C110.3,110.7,118.9,54.3,129.9,57.3"/>
	<path class="st1" d="M82.3,91.3c7.5-6.6,25.6-36.2,5.9-46.4c-17.9-9.2-34.3,26.9-34.3,26.9l1.9-9.9c0,0,1.2-4.5-1.9-4.6
		c-3.1,0-3.4,3.3-4.3,7.1s-13.9,67.9-13.9,67.9s-2.3-3-1.2-7.2c0.8-3.2-3.9-5.6-5.7-0.5c-2.2,6.3,7.5,23.4,18.6,25.9
		c11.5,2.6,40,1.8,49.6-26.3C106.6,96.2,82.3,91.2,82.3,91.3 M71.1,141.8c-18.3,7.5-28.8-1.4-28.8-1.4s9-40.5,16.9-55.8
		C67,69.3,77,55.5,84.6,55.3c7.7-0.2,7.3,22.3-17,39.2c-1.8,1.2-2.4,3.8-0.8,5.5s2.3,2.3,6-0.5c3.7-2.8,10-4.6,15.7,0.6
		C94.2,105.1,96.3,128.5,71.1,141.8"/>
</g>
</svg>
